Coordinates
version=1
nRows=19
nColumns=33
inDegrees=yes

Units are S.I. units (second, meters, Newtons, ...)
Angles are in degrees.

endheader
time	ground_thorax_rot_x	ground_thorax_rot_y	ground_thorax_rot_z	ground_thorax_tx	ground_thorax_ty	ground_thorax_tz	clav_prot_r	clav_elev_r	scapula_abduction_r	scapula_elevation_r	scapula_upward_rot_r	scapula_winging_r	shoulder_elv_r	plane_of_elev_r	axial_rot_r	elbow_flexion_r	pro_sup_r	wrist_flex_r	wrist_dev_r	clav_prot_l	clav_elev_l	scapula_abduction_l	scapula_elevation_l	scapula_upward_rot_l	scapula_winging_l	shoulder_elv_l	plane_of_elev_l	axial_rot_l	elbow_flexion_l	pro_sup_l	wrist_flex_l	wrist_dev_l
      2.25000000	      2.56038315	     -0.58457967	    -13.82504238	     -0.03088179	      1.04744178	      0.00270012	    -12.21331392	     -9.17133020	    -11.62890688	     -2.75145304	      5.81163281	      1.00095223	     49.85685660	    -46.86188651	     52.97661993	     58.97085764	     -0.68043494	     13.33895786	      6.56560177	     -7.04109454	     -6.89239917	      6.51443022	     -2.75420949	     -6.44191810	     -2.32679373	     56.72762799	    -50.63770148	    -40.32057779	     63.10617961	      3.57801647	      3.26022471	    -21.20267174
      2.26000000	      2.60910911	     -0.55887542	    -13.77644582	     -0.03089656	      1.04760001	      0.00254924	    -12.29760616	     -9.06403330	    -11.61169882	     -2.78272408	      6.18405637	      0.88869409	     49.67223113	    -46.86847873	     53.35822370	     58.61849397	      1.46097878	     14.35641992	      6.05950723	     -7.00740152	     -6.89240557	      6.47375439	     -2.77728314	     -6.50015301	     -2.32334458	     56.75291067	    -50.46195569	    -40.39644548	     63.11727013	      6.56177914	      2.12942128	    -21.98365786
      2.27000000	      2.60501839	     -0.56279338	    -13.77359719	     -0.03071864	      1.04759417	      0.00256082	    -12.29745349	     -9.06225647	    -11.61203334	     -2.78230229	      6.18421011	      0.88871663	     49.67314291	    -46.86947053	     53.35805745	     58.61809307	      1.46122312	     14.35606797	      6.05958576	     -7.00664075	     -6.89485646	      6.47123510	     -2.77572995	     -6.49760281	     -2.32566109	     56.75308844	    -50.45755261	    -40.39614292	     63.12016367	      6.56194135	      2.12936885	    -21.98415697
      2.28000000	      2.58143765	     -0.58294747	    -13.76916989	     -0.03073394	      1.04764331	      0.00252827	    -12.29898815	     -9.05489126	    -11.61559989	     -2.77439372	      6.18400765	      0.88571246	     49.67896196	    -46.87897438	     53.35885292	     58.61313100	      1.46301297	     14.35453800	      6.06032163	     -7.00329448	     -6.90434757	      6.46236451	     -2.76376175	     -6.49296857	     -2.32623793	     56.75062085	    -50.43905224	    -40.39754097	     63.13457735	      6.56348206	      2.12930959	    -21.98779906
      2.29000000	      2.57736353	     -0.58534571	    -13.76675417	     -0.03059303	      1.04768589	      0.00253086	    -12.29849717	     -9.05332743	    -11.61483111	     -2.77425518	      6.18554767	      0.88626295	     49.68079587	    -46.87862609	     53.35853216	     58.61288915	      1.46342982	     14.35453550	      6.06041510	     -7.00249186	     -6.90655417	      6.46004421	     -2.76287498	     -6.49159176	     -2.32678156	     56.75025283	    -50.43548373	    -40.39819929	     63.13796473	      6.56400147	      2.12928349	    -21.98892554
      2.30000000	      2.55228830	     -0.59953565	    -13.76012711	     -0.03067088	      1.04774216	      0.00242225	    -12.29819116	     -9.04810553	    -11.61086125	     -2.77147351	      6.19387743	      0.88237430	     49.69197234	    -46.87742269	     53.35758526	     58.61264959	      1.46643779	     14.35574524	      6.06150166	     -6.99724096	     -6.91386177	      6.44891966	     -2.75458485	     -6.49070864	     -2.32495596	     56.74625117	    -50.42034656	    -40.40517040	     63.15503844	      6.56803673	      2.12932884	    -21.99657855
      2.31000000	      2.55093307	     -0.60036718	    -13.75856645	     -0.03055737	      1.04781878	      0.00238937	    -12.29761104	     -9.04800814	    -11.60914752	     -2.77174744	      6.19622574	      0.88282846	     49.69344284	    -46.87529649	     53.35721612	     58.61401849	      1.46684947	     14.35632746	      6.06167378	     -6.99624704	     -6.91376698	      6.44712400	     -2.75481264	     -6.49000037	     -2.32539929	     56.74662968	    -50.41922742	    -40.40611967	     63.15689266	      6.56868443	      2.12927110	    -21.99776278
      2.32000000	      2.50150962	     -0.67334202	    -13.85052131	     -0.03102901	      1.04738447	      0.00229635	    -12.18545136	     -8.97269647	    -11.38700281	     -2.72685261	      6.27902055	      0.81078613	     49.75709421	    -46.77715310	     53.53935387	     58.90416613	      1.62115636	     14.50540043	      6.18972601	     -6.88430915	     -6.83685364	      6.25258243	     -2.81972664	     -6.46684009	     -2.25466856	     56.82567233	    -50.42885237	    -40.57386477	     63.37109780	      6.74588196	      2.08088603	    -22.28894018
      2.33000000	      2.49155794	     -0.66650990	    -13.83403823	     -0.03099459	      1.04752622	      0.00214668	    -12.18641174	     -8.97410457	    -11.38201253	     -2.73262118	      6.29457716	      0.81068188	     49.76621600	    -46.76446852	     53.53253461	     58.91455101	      1.62486501	     14.50980266	      6.19091262	     -6.88352952	     -6.83490275	      6.25331158	     -2.82257905	     -6.47111175	     -2.25653468	     56.82367863	    -50.43598060	    -40.57730043	     63.36728118	      6.75123452	      2.07875347	    -22.29563721
      2.34000000	      2.49033691	     -0.66729260	    -13.83020864	     -0.03087391	      1.04760726	      0.00208863	    -12.18671632	     -8.97395626	    -11.38050370	     -2.73399174	      6.29729360	      0.81060652	     49.76750030	    -46.76159169	     53.53156129	     58.91773309	      1.62541039	     14.51088919	      6.19119756	     -6.88309880	     -6.83442220	      6.25202151	     -2.82289006	     -6.47001935	     -2.25708830	     56.82511790	    -50.43592019	    -40.57736377	     63.36671441	      6.75192226	      2.07823301	    -22.29675877
      2.35000000	      2.60352707	     -0.87204335	    -13.36394995	     -0.03117835	      1.04757283	      0.00221815	    -12.12046615	     -8.70938589	    -11.16278311	     -2.59283396	      6.59891810	      0.62105331	     50.29077117	    -47.01538626	     54.17309061	     59.47228756	      2.91133657	     15.01338032	      7.10051424	     -6.84025197	     -6.87187676	      6.21599349	     -2.84305865	     -6.61122751	     -2.28053879	     56.84283951	    -50.86703473	    -40.84453177	     62.97388185	      7.68362948	      1.20066584	    -24.02268401
      2.36000000	      2.58509671	     -0.86162451	    -13.34948463	     -0.03122486	      1.04776979	      0.00205113	    -12.11972616	     -8.71634729	    -11.14813944	     -2.60721715	      6.62386552	      0.61928135	     50.30117311	    -46.98132739	     54.15836506	     59.49903414	      2.91568161	     15.01946840	      7.09867801	     -6.83846101	     -6.87479689	      6.20936934	     -2.83685613	     -6.60181437	     -2.27935271	     56.85298271	    -50.85816739	    -40.84089641	     62.97676195	      7.68649548	      1.19530187	    -24.02913435
      2.37000000	      2.56495377	     -0.96425865	    -13.62865587	     -0.03113094	      1.04751774	      0.00217817	    -12.20154192	     -8.79032779	    -11.19623632	     -2.73190412	      6.78609101	      0.62553387	     50.48062374	    -46.86340941	     54.12417513	     60.11600734	      4.00604020	     15.16145932	      7.47640215	     -6.90951852	     -6.99060338	      6.28347333	     -2.69160433	     -6.50330520	     -2.31313007	     56.90485938	    -50.91037707	    -40.82173416	     63.06406845	      8.12115082	      0.40206002	    -24.99999983
      2.38000000	      2.49405497	     -0.99785676	    -13.67580784	     -0.03127645	      1.04758369	      0.00220931	    -12.15142416	     -8.76880883	    -11.08739780	     -2.72653505	      6.83747464	      0.59684041	     50.50128681	    -46.77540870	     54.18514777	     60.29482044	      4.08252744	     15.21356000	      7.51198634	     -6.85150149	     -6.95400631	      6.17482223	     -2.71267111	     -6.46427750	     -2.27439088	     57.00018892	    -50.91940717	    -40.89073623	     63.02297722	      8.15436561	      0.37462412	    -24.99999983
      2.39000000	      2.45095841	     -1.03801553	    -13.70095473	     -0.03156126	      1.04739188	      0.00219780	    -12.11463460	     -8.67592297	    -10.98325321	     -2.68038893	      6.95455087	      0.52933448	     50.58191683	    -46.72972104	     54.29087952	     60.70384366	      4.21540295	     15.35391969	      7.58851819	     -6.80129026	     -6.85502813	      6.08094804	     -2.78204308	     -6.40411713	     -2.21609965	     57.06328986	    -50.93978015	    -40.99563810	     63.28133890	      8.18342762	      0.28107887	    -24.99999983
      2.40000000	      2.42246437	     -1.02547977	    -13.68136207	     -0.03177341	      1.04717119	      0.00213238	    -12.08141916	     -8.53791387	    -10.88340865	     -2.59833284	      7.08643245	      0.43560923	     50.71787686	    -46.75752138	     54.45214969	     61.16139441	      4.39116143	     15.53637431	      7.70195711	     -6.76785809	     -6.74284620	      6.01342527	     -2.85425609	     -6.32000060	     -2.15819245	     57.13897250	    -50.98778540	    -41.09546914	     63.57349342	      8.20727639	      0.13774871	    -24.99999983
      2.41000000	      2.46199228	     -1.01591029	    -13.51929277	     -0.03171491	      1.04767498	      0.00204126	    -12.15865584	     -8.74805322	    -10.93939048	     -2.81804321	      7.16827106	      0.51696302	     51.59155822	    -47.07531792	     54.89749744	     61.89454016	      7.19150839	     15.91794182	      8.31082525	     -6.80204959	     -6.88118078	      5.99510230	     -2.66581712	     -6.15741571	     -2.17181793	     57.44155013	    -51.41508670	    -41.97929711	     63.82948113	      8.51953006	     -1.64416889	    -24.99999983
      2.42000000	      2.44771754	     -1.02322754	    -13.58268286	     -0.03200887	      1.04748971	      0.00201997	    -12.12914810	     -8.58420863	    -10.83092299	     -2.72641620	      7.34228825	      0.40776292	     51.72562186	    -47.04774955	     54.99606068	     62.45001967	      7.22746764	     16.10455107	      8.32930038	     -6.76740594	     -6.75305415	      5.92552958	     -2.75001448	     -6.06641948	     -2.10551781	     57.50898127	    -51.37466891	    -42.04350809	     64.18682967	      8.49806025	     -1.66242946	    -24.99999983
      2.43000000	      2.44073269	     -1.03500919	    -13.58431333	     -0.03234786	      1.04732769	      0.00199255	    -12.08142574	     -8.38188233	    -10.67576123	     -2.61314147	      7.55677497	      0.26893008	     51.93224933	    -47.07409953	     55.20764123	     63.08279738	      7.29447882	     16.34595252	      8.39907294	     -6.71699711	     -6.59381726	      5.82995642	     -2.86017895	     -5.96713088	     -2.02361021	     57.59069229	    -51.39406630	    -42.17090291	     64.59558465	      8.46144879	     -1.71033213	    -24.99999983
